<?xml version="1.0" encoding="UTF-8"?>
<svg id="logo" xmlns="http://www.w3.org/2000/svg" width="2000" height="2000" viewBox="0 0 2000 2000">
  <defs>
    <style>
      .cls-1 {
        letter-spacing: .12em;
      }

      .cls-2 {
        letter-spacing: .01em;
      }

      .cls-3, .cls-4, .cls-5, .cls-6, .cls-7, .cls-8 {
        stroke-width: 0px;
      }

      .cls-3, .cls-9, .cls-10 {
        fill: #000;
      }

      .cls-4 {
        fill: #f6dc61;
      }

      .cls-11 {
        letter-spacing: -.01em;
      }

      .cls-5 {
        fill: #ed585a;
      }

      .cls-12 {
        letter-spacing: 0em;
      }

      .cls-6 {
        fill: none;
      }

      .cls-13 {
        letter-spacing: .11em;
      }

      .cls-9 {
        font-family: Montserrat-ExtraBold, Montserrat;
        font-size: 260px;
        font-weight: 700;
      }

      .cls-10 {
        font-family: Rubik-Regular, Rubik;
        font-size: 115px;
        font-variation-settings: ';
      }

      .cls-7 {
        fill: #536ee9;
      }

      .cls-14 {
        letter-spacing: .09em;
      }

      .cls-8 {
        fill: #81d15c;
      }
    </style>
  </defs>
  <g>
    <g id="right">
      <g id="lines">
        <path class="cls-3" d="M1071.89,703.89l2.97,3.36c-.92-3.59,3.71-5.74,3.71-5.74-1.97.75-3.96,1.46-5.97,2.13l-.71.25Z"/>
        <path class="cls-3" d="M1042.76,681.22l1.45-1.23c-1.41.22-2.86.42-4.31.62l.05.02,2.8.59Z"/>
        <path class="cls-3" d="M1037.12,679.36l2.78,1.24c1.45-.19,2.9-.4,4.31-.62,1.2-.2-4.12.41-7.09-.62Z"/>
        <path class="cls-3" d="M1130.13,511.36s-.05-.03-.07-.05c.01.02.04.03.07.05Z"/>
        <path class="cls-3" d="M1130.07,511.32s-.02-.05-.02-.05c-.02,0,0,.03.02.05Z"/>
        <path class="cls-3" d="M1130.08,511.27h-.03s.15.12.15.12c-.03,0-.04-.02-.06-.03.72.48,6.01,2.97,8.67,12.7.37,1.37.65,2.33.85,2.99-.8-4.76-1.77-9.58-2.93-14.48-2.26-.31-4.47-.74-6.64-1.3Z"/>
        <path class="cls-3" d="M1130.05,511.26s0,.03.02.05c.01.01.05.03.07.05.02.01.03.03.06.03l-.15-.13Z"/>
        <path class="cls-3" d="M1136.72,512.57s0,0,0,0c1.16,4.89,2.13,9.72,2.93,14.48,1.75,5.81-2.75-13.7-2.93-14.48Z"/>
        <path class="cls-3" d="M1166.24,509.09l.7,1.51c-.12-.56-.25-1.13-.38-1.7l-.32.19Z"/>
        <path class="cls-3" d="M1167.47,508.52c-.28.12-.58.23-.86.35,0,0-.02.03-.02.03h-.02c.13.58.26,1.15.38,1.71l.03.07c-.2-.5,0-1.16.5-2.15,0,0,0,0,0,0Z"/>
        <path class="cls-3" d="M1166.57,508.9s0-.01,0-.02c-6.75,2.74-14.11,4.26-21.83,4.26-2.72,0-5.39-.2-8.01-.56.18.78,4.68,20.29,2.93,14.48,7.13,42.28.33,79.08-19.97,107.1-17.63,24.33-44.68,41.04-75.46,45.84l-1.45,1.23-2.8-.59-.05-.02c-.75.1-1.5.19-2.26.28.46.11.89.21,1.37.33,13.28,3.32,31.48,21.3,32.84,22.66.24-.08.49-.15.74-.24l5.97-2.13c26.2-10.05,48.97-27.19,65.35-49.8,18.97-26.19,38.07-71.76,23.03-141.11l-.7-1.51.32-.19Z"/>
        <path class="cls-3" d="M1004.09,671.24c.18.1.33.18.5.28l8.12.89s-10.07-3.32-14.34-9.73c0,0,0,0,0,0l5.64,8.52s.05.03.08.04Z"/>
        <path class="cls-3" d="M1004.02,671.19s0,0,0,0l-5.64-8.52c-3.92-5.9,4.31,6.52,5.64,8.52Z"/>
        <path class="cls-3" d="M846.96,435.54c.29.37,3.78,4.79,2.59,2.4l-1.82-2.75c-.26.11-.51.24-.77.35Z"/>
        <path class="cls-3" d="M849.55,437.94s0,0,0,0c-1.07-2.14.19-3.51.17-3.66l-.1.05c-.62.3-1.26.59-1.89.87l1.82,2.75Z"/>
        <path class="cls-3" d="M814.61,439.39l2.54,3.84s0,0,0,0c2.34,3.49-2.54-3.84-2.54-3.84Z"/>
        <path class="cls-3" d="M812.96,439.08c-.2-.04-.41-.07-.61-.12l-.12-.02s2.59.8,4.93,4.29l-2.54-3.84-1.65-.31Z"/>
        <path class="cls-3" d="M1004.02,671.19c-1.33-2-9.56-14.42-5.64-8.52l-148.82-224.74c1.19,2.39-2.29-2.03-2.59-2.4-7,2.99-14.71,4.64-22.79,4.64-3.26,0-6.46-.28-9.58-.8v.02s4.89,7.33,2.55,3.84c0,0,0,0,0,0l162.71,245.71c-31.88-48.85-6.43-34.74,24.15-17.75Z"/>
        <path class="cls-3" d="M767.85,366.78c.88-3.27,2.03-6.43,3.44-9.44l.05-.15s-3.81,9.71-14.63,9.71h11.09l.04-.12Z"/>
        <path class="cls-3" d="M767.81,396.83h-3.73c1.96,0,5.6,5.79,5.6,5.79l-.07-.2c-.66-1.74-1.23-3.52-1.73-5.34l-.08-.24Z"/>
        <path class="cls-3" d="M662.09,398.85s.63-2.01,2.93-2.01h-2.37l-.56,2.01Z"/>
        <path class="cls-3" d="M662.49,366.9h9.83c-7.48,0-11.37-4.83-11.37-4.83v.03c.54,1.44,1,2.9,1.41,4.39l.13.41Z"/>
        <path class="cls-3" d="M1034.01,681.27c1.22-.11,2.43-.24,3.64-.39-27.76-6.77-11.75,2.47-33.05-9.37l-.4-.04.63.95-24.96,16.53c31.9,48.89,92.08,15.02,92.08,15.02,0,0-.04-.04-.09-.09-11.28,3.73-23.12,6.19-35.32,7.22l-2.53-29.83Z"/>
        <path class="cls-3" d="M1037.65,680.88c-1.21.14-2.42.28-3.64.39l2.53,29.83c12.2-1.03,24.04-3.5,35.32-7.22-1.36-1.35-19.57-19.34-32.84-22.66-.48-.12-.91-.22-1.37-.33Z"/>
        <path class="cls-3" d="M1004.02,671.19l.17.25.02.03.4.04c-.17-.1-.32-.18-.5-.28-.03-.01-.05-.03-.08-.04Z"/>
        <path class="cls-3" d="M1004.02,671.19c.08.13.14.22.17.25l-.17-.25s0,0,0,0Z"/>
        <path class="cls-3" d="M1004.2,671.47h0s-.01-.02-.02-.03c-.02-.04-.08-.12-.17-.25-30.57-16.99-56.02-31.1-24.15,17.75l24.96-16.53-.63-.95Z"/>
        <path class="cls-3" d="M1004.2,671.47h0l-.02-.03s.02.03.02.03Z"/>
        <path class="cls-3" d="M767.82,396.83c-1.27-4.78-1.96-9.79-1.96-14.97s.69-10.19,1.96-14.97h-105.35c1.32,4.87,2.04,9.99,2.04,15.28s-.65,9.97-1.87,14.66h105.17Z"/>
        <path class="cls-6" d="M767.82,366.9s.02-.08.03-.12l-.04.12h0Z"/>
        <path class="cls-6" d="M814.61,439.39v-.02c-.56-.09-1.11-.19-1.65-.29l1.65.31Z"/>
        <path class="cls-6" d="M824.17,412.74c17.02,0,30.87-13.85,30.87-30.87s-13.85-30.87-30.87-30.87-30.87,13.85-30.87,30.87,13.85,30.87,30.87,30.87Z"/>
        <path class="cls-6" d="M662.47,366.9h.01l-.13-.41c.04.14.08.27.12.41Z"/>
        <path class="cls-6" d="M1166.57,508.9h.02s.02-.03.02-.04c-.02,0-.03.01-.05.02,0,0,0,.01,0,.02Z"/>
        <path class="cls-6" d="M606.21,351.31c-17.02,0-30.87,13.85-30.87,30.87s13.85,30.87,30.87,30.87,30.87-13.85,30.87-30.87-13.85-30.87-30.87-30.87Z"/>
        <path class="cls-6" d="M1175.6,454.82c0-17.02-13.85-30.87-30.87-30.87s-30.87,13.85-30.87,30.87,13.85,30.87,30.87,30.87,30.87-13.85,30.87-30.87Z"/>
        <path class="cls-6" d="M767.89,397.07c-.02-.08-.05-.16-.07-.24h0l.08.24Z"/>
        <path class="cls-3" d="M1078.57,701.51l-5.97,2.13c2.01-.67,4-1.38,5.97-2.13Z"/>
      </g>
      <g id="dots">
        <path class="cls-3" d="M662.33,366.9h.14c-.04-.14-.08-.27-.12-.41l-1.4-4.39c-8.2-22.29-29.65-38.23-54.75-38.23-32.15,0-58.31,26.16-58.31,58.31s26.16,58.31,58.31,58.31c27.09,0,49.93-18.57,56.44-43.66h-.32v-29.94ZM606.21,413.05c-17.02,0-30.87-13.85-30.87-30.87s13.85-30.87,30.87-30.87,30.87,13.85,30.87,30.87-13.85,30.87-30.87,30.87Z"/>
        <path class="cls-3" d="M660.95,362.1l1.4,4.39c-.42-1.49-.87-2.95-1.4-4.39Z"/>
        <path class="cls-3" d="M662.47,366.9h-.14v29.94h.32c1.22-4.68,8.11-9.85,8.11-14.91s-6.96-10.15-8.29-15.03Z"/>
        <path class="cls-3" d="M1138.43,512.13l27.41-6.48c.26,1.09.48,2.16.72,3.24.02,0,.03-.01.05-.02.13-.14,1.48-1.56.86-.35,20.88-8.88,35.57-29.6,35.57-53.69,0-32.15-26.16-58.31-58.31-58.31s-58.31,26.16-58.31,58.31c0,27.09,18.57,49.93,43.66,56.44l6.68,1.2c.19-.28.98-1.27,1.68-.34ZM1113.86,454.82c0-17.02,13.85-30.87,30.87-30.87s30.87,13.85,30.87,30.87-13.85,30.87-30.87,30.87-30.87-13.85-30.87-30.87Z"/>
        <path class="cls-3" d="M1136.76,512.47s-.05.07-.05.07l.19-.04-.14-.03Z"/>
        <path class="cls-3" d="M1136.71,512.53s.02-.03.05-.07l-6.68-1.2c2.17.56,4.38.99,6.64,1.3,0-.01,0-.02,0-.04Z"/>
        <path class="cls-3" d="M1138.43,512.13c-.7-.93-1.48.06-1.68.34l.14.03,1.54-.36Z"/>
        <path class="cls-3" d="M1136.72,512.57s0,0,0,0c0-.02,0-.04,0-.04,0,.01,0,.02,0,.04Z"/>
        <path class="cls-3" d="M1138.8,512.83c-.12-.31-.24-.54-.37-.7l-1.54.36,1.9.34Z"/>
        <path class="cls-3" d="M1166.61,508.86c.29-.12.58-.22.86-.35.61-1.21-.73.21-.86.35Z"/>
        <path class="cls-3" d="M1138.43,512.13c.13.17.25.39.37.7l-1.9-.34-.19.04s0,.02,0,.04c2.62.36,11.53,9.05,14.25,9.05,7.72,0,8.85-10.01,15.6-12.74-.24-1.08-.46-2.14-.72-3.24l-27.41,6.48Z"/>
        <path class="cls-3" d="M814.6,439.38l-.7-1.06,24.96-16.53,8.86,13.37,1.91-.84c19.44-9.47,32.87-29.42,32.87-52.46,0-32.15-26.16-58.31-58.31-58.31-23.39,0-43.6,13.85-52.88,33.78l-3.44,9.44s-.02.08-.03.12h.53v29.94h-.53c.02.08.05.16.07.24l1.73,5.34c6.97,18.46,23.05,32.48,42.73,36.55l.61.12c.55.11,1.09.2,1.64.29ZM824.17,350.99c17.02,0,30.87,13.85,30.87,30.87s-13.85,30.87-30.87,30.87-30.87-13.85-30.87-30.87,13.85-30.87,30.87-30.87Z"/>
        <path class="cls-3" d="M847.71,435.16l-.78.34s.02.02.03.04c.26-.11.51-.23.77-.35l-.02-.03Z"/>
        <path class="cls-3" d="M847.73,435.19c.63-.28,1.27-.56,1.89-.87l-1.91.84.02.03Z"/>
        <path class="cls-3" d="M812.34,438.97c.2.04.41.08.61.12l-.61-.12Z"/>
        <path class="cls-3" d="M847.71,435.16l-8.86-13.37-24.96,16.53.7,1.06c3.12.52,20.03,13.64,23.3,13.64,8.08,0,2.06-14.5,9.07-17.48-.01-.02-.03-.04-.03-.04l.78-.34Z"/>
        <path class="cls-3" d="M771.29,357.34c-1.41,3.02-2.56,6.17-3.44,9.44l3.44-9.44Z"/>
        <path class="cls-3" d="M769.61,402.42l-1.73-5.34c.49,1.82,1.07,3.6,1.73,5.34Z"/>
        <path class="cls-3" d="M767.82,396.83h.53v-29.94h-.53c-1.27,4.78-7.26,9.85-7.26,15.03s5.99,10.13,7.26,14.91Z"/>
      </g>
    </g>
    <g id="left">
      <g id="lines-2" data-name="lines">
        <path class="cls-3" d="M929.11,698.03l3.36-2.97c-3.59.92-5.74-3.71-5.74-3.71.75,1.97,1.46,3.96,2.13,5.97l.25.71Z"/>
        <path class="cls-3" d="M906.44,727.16l-1.23-1.45c.22,1.41.42,2.86.62,4.31l.02-.05.59-2.8Z"/>
        <path class="cls-3" d="M904.58,732.79l1.24-2.78c-.19-1.45-.4-2.9-.62-4.31-.2-1.2.41,4.12-.62,7.09Z"/>
        <path class="cls-3" d="M736.58,639.78s-.03.05-.05.07c.02-.01.03-.04.05-.07Z"/>
        <path class="cls-3" d="M736.54,639.85s-.05.02-.05.02c0,.02.03,0,.05-.02Z"/>
        <path class="cls-3" d="M736.49,639.84v.03s.12-.15.12-.15c0,.03-.02.04-.03.06.48-.72,2.97-6.01,12.7-8.67,1.37-.37,2.33-.65,2.99-.85-4.76.8-9.58,1.77-14.48,2.93-.31,2.26-.74,4.47-1.3,6.64Z"/>
        <path class="cls-3" d="M736.48,639.87s.03,0,.05-.02c.01-.01.03-.05.05-.07.01-.02.03-.03.03-.06l-.13.15Z"/>
        <path class="cls-3" d="M737.79,633.2s0,0,0,0c4.89-1.16,9.72-2.13,14.48-2.93,5.81-1.75-13.7,2.75-14.48,2.93Z"/>
        <path class="cls-3" d="M734.31,603.68l1.51-.7c-.56.12-1.13.25-1.7.38l.19.32Z"/>
        <path class="cls-3" d="M733.74,602.44c.12.28.23.58.35.86,0,0,.03.02.03.02v.02c.58-.13,1.15-.26,1.71-.38l.07-.03c-.5.2-1.16,0-2.15-.5,0,0,0,0,0,0Z"/>
        <path class="cls-3" d="M734.12,603.35s-.01,0-.02,0c2.74,6.75,4.26,14.11,4.26,21.83,0,2.72-.2,5.39-.56,8.01.78-.18,20.29-4.68,14.48-2.93,42.28-7.13,79.08-.33,107.1,19.97,24.33,17.63,41.04,44.68,45.84,75.46l1.23,1.45-.59,2.8-.02.05c.1.75.19,1.5.28,2.26.11-.46.21-.89.33-1.37,3.32-13.28,21.3-31.48,22.66-32.84-.08-.24-.15-.49-.24-.74l-2.13-5.97c-10.05-26.2-27.19-48.97-49.8-65.35-26.19-18.97-71.76-38.07-141.11-23.03l-1.51.7-.19-.32Z"/>
        <path class="cls-3" d="M896.46,765.82c.1-.18.18-.33.28-.5l.89-8.12s-3.32,10.07-9.73,14.34c0,0,0,0,0,0l8.52-5.64s.03-.05.04-.08Z"/>
        <path class="cls-3" d="M896.41,765.9s0,0,0,0l-8.52,5.64c-5.9,3.92,6.52-4.31,8.52-5.64Z"/>
        <path class="cls-3" d="M660.76,922.95c.37-.29,4.79-3.78,2.4-2.59l-2.75,1.82c.11.26.24.51.35.77Z"/>
        <path class="cls-3" d="M663.16,920.37s0,0,0,0c-2.14,1.07-3.51-.19-3.66-.17l.05.1c.3.62.59,1.26.87,1.89l2.75-1.82Z"/>
        <path class="cls-3" d="M664.61,955.31l3.84-2.54s0,0,0,0c3.49-2.34-3.84,2.54-3.84,2.54Z"/>
        <path class="cls-3" d="M664.3,956.96c-.04.2-.07.41-.12.61l-.02.12s.8-2.59,4.29-4.93l-3.84,2.54-.31,1.65Z"/>
        <path class="cls-3" d="M896.41,765.9c-2,1.33-14.42,9.56-8.52,5.64l-224.74,148.82c2.39-1.19-2.03,2.29-2.4,2.59,2.99,7,4.64,14.71,4.64,22.79,0,3.26-.28,6.46-.8,9.58h.02s7.33-4.89,3.84-2.55c0,0,0,0,0,0l245.71-162.71c-48.85,31.88-34.74,6.43-17.75-24.15Z"/>
        <path class="cls-3" d="M592,1002.06c-3.27-.88-6.43-2.03-9.44-3.44l-.15-.05s9.71,3.81,9.71,14.63v-11.09l-.12-.04Z"/>
        <path class="cls-3" d="M622.05,1002.11v3.73c0-1.96,5.79-5.6,5.79-5.6l-.2.07c-1.74.66-3.52,1.23-5.34,1.73l-.24.08Z"/>
        <path class="cls-3" d="M624.07,1107.83s-2.01-.63-2.01-2.93v2.37l2.01.56Z"/>
        <path class="cls-3" d="M592.12,1107.43v-9.83c0,7.48-4.83,11.37-4.83,11.37h.03c1.44-.54,2.9-1,4.39-1.41l.41-.13Z"/>
        <path class="cls-3" d="M906.49,735.91c-.11-1.22-.24-2.43-.39-3.64-6.77,27.76,2.47,11.75-9.37,33.05l-.04.4.95-.63,16.53,24.96c48.89-31.9,15.02-92.08,15.02-92.08,0,0-.04.04-.09.09,3.73,11.28,6.19,23.12,7.22,35.32l-29.83,2.53Z"/>
        <path class="cls-3" d="M906.1,732.27c.14,1.21.28,2.42.39,3.64l29.83-2.53c-1.03-12.2-3.5-24.04-7.22-35.32-1.35,1.36-19.34,19.57-22.66,32.84-.12.48-.22.91-.33,1.37Z"/>
        <path class="cls-3" d="M896.42,765.9l.25-.17.03-.02.04-.4c-.1.17-.18.32-.28.5-.01.03-.03.05-.04.08Z"/>
        <path class="cls-3" d="M896.41,765.9c.13-.08.22-.14.25-.17l-.25.17s0,0,0,0Z"/>
        <path class="cls-3" d="M896.69,765.72h0s-.02.01-.03.02c-.04.02-.12.08-.25.17-16.99,30.57-31.1,56.02,17.75,24.15l-16.53-24.96-.95.63Z"/>
        <path class="cls-3" d="M896.69,765.72h0l-.03.02s.03-.02.03-.02Z"/>
        <path class="cls-3" d="M622.05,1002.1c-4.78,1.27-9.79,1.96-14.97,1.96s-10.19-.69-14.97-1.96h0v105.33h0c4.87-1.31,9.99-2.03,15.28-2.03s9.97.65,14.66,1.87h0v-105.16h0Z"/>
        <path class="cls-6" d="M592.12,1002.1s-.08-.02-.12-.03l.12.04h0Z"/>
        <path class="cls-6" d="M664.61,955.31h-.02c-.09.56-.19,1.11-.29,1.65l.31-1.65Z"/>
        <path class="cls-6" d="M637.96,945.74c0-17.02-13.85-30.87-30.87-30.87s-30.87,13.85-30.87,30.87,13.85,30.87,30.87,30.87,30.87-13.85,30.87-30.87Z"/>
        <path class="cls-6" d="M592.12,1107.45h0s-.41.12-.41.12c.14-.04.27-.08.41-.12Z"/>
        <path class="cls-6" d="M734.12,603.35v-.02s-.03-.02-.04-.02c0,.02.01.03.02.05,0,0,.01,0,.02,0Z"/>
        <path class="cls-6" d="M576.53,1163.71c0,17.02,13.85,30.87,30.87,30.87s30.87-13.85,30.87-30.87-13.85-30.87-30.87-30.87-30.87,13.85-30.87,30.87Z"/>
        <path class="cls-6" d="M680.05,594.32c-17.02,0-30.87,13.85-30.87,30.87s13.85,30.87,30.87,30.87,30.87-13.85,30.87-30.87-13.85-30.87-30.87-30.87Z"/>
        <path class="cls-6" d="M622.29,1002.03c-.08.02-.16.05-.24.07h0s.24-.07.24-.07Z"/>
        <path class="cls-3" d="M926.73,691.35l2.13,5.97c-.67-2.01-1.38-4-2.13-5.97Z"/>
      </g>
      <g id="dots-2" data-name="dots">
        <path class="cls-3" d="M592.12,1107.58v-.14c-.14.04-.27.08-.41.12l-4.39,1.4c-22.29,8.2-38.23,29.65-38.23,54.75,0,32.15,26.16,58.31,58.31,58.31s58.31-26.16,58.31-58.31c0-27.09-18.57-49.93-43.66-56.44v.32h-29.94ZM638.27,1163.71c0,17.02-13.85,30.87-30.87,30.87s-30.87-13.85-30.87-30.87,13.85-30.87,30.87-30.87,30.87,13.85,30.87,30.87Z"/>
        <path class="cls-3" d="M587.32,1108.96l4.39-1.4c-1.49.42-2.95.87-4.39,1.4Z"/>
        <path class="cls-3" d="M592.12,1107.45v.14h29.94v-.32c-4.68-1.22-9.85-21.87-14.91-21.87s-10.15,20.72-15.03,22.05Z"/>
        <path class="cls-3" d="M737.35,631.48l-6.48-27.41c1.09-.26,2.16-.48,3.24-.72,0-.02-.01-.03-.02-.05-.14-.13-1.56-1.48-.35-.86-8.88-20.88-29.6-35.57-53.69-35.57-32.15,0-58.31,26.16-58.31,58.31s26.16,58.31,58.31,58.31c27.09,0,49.93-18.57,56.44-43.66l1.2-6.68c-.28-.19-1.27-.98-.34-1.68ZM680.05,656.06c-17.02,0-30.87-13.85-30.87-30.87s13.85-30.87,30.87-30.87,30.87,13.85,30.87,30.87-13.85,30.87-30.87,30.87Z"/>
        <path class="cls-3" d="M737.69,633.16s.07.05.07.05l-.04-.19-.03.14Z"/>
        <path class="cls-3" d="M737.76,633.21s-.03-.02-.07-.05l-1.2,6.68c.56-2.17.99-4.38,1.3-6.64-.01,0-.02,0-.04,0Z"/>
        <path class="cls-3" d="M737.35,631.48c-.93.7.06,1.48.34,1.68l.03-.14-.36-1.54Z"/>
        <path class="cls-3" d="M737.79,633.2s0,0,0,0c-.02,0-.04,0-.04,0,.01,0,.02,0,.04,0Z"/>
        <path class="cls-3" d="M738.05,631.12c-.31.12-.54.24-.7.37l.36,1.54.34-1.9Z"/>
        <path class="cls-3" d="M734.08,603.31c-.12-.29-.22-.58-.35-.86-1.21-.61.21.73.35.86Z"/>
        <path class="cls-3" d="M737.35,631.48c.17-.13.39-.25.7-.37l-.34,1.9.04.19s.02,0,.04,0c.36-2.62,6.56-7.83,6.56-10.55,0-7.72-7.51-12.55-10.25-19.3-1.08.24-2.14.46-3.24.72l6.48,27.41Z"/>
        <path class="cls-3" d="M664.6,955.32l-1.06.7-16.53-24.96,13.37-8.86-.84-1.91c-9.47-19.44-29.42-32.87-52.46-32.87-32.15,0-58.31,26.16-58.31,58.31,0,23.39,13.85,43.6,33.78,52.88l9.44,3.44s.08.02.12.03v-.53h29.94v.53c.08-.02.16-.05.24-.07l5.34-1.73c18.46-6.97,32.48-23.05,36.55-42.73l.12-.61c.11-.55.2-1.09.29-1.64ZM576.22,945.74c0-17.02,13.85-30.87,30.87-30.87s30.87,13.85,30.87,30.87-13.85,30.87-30.87,30.87-30.87-13.85-30.87-30.87Z"/>
        <path class="cls-3" d="M660.38,922.21l.34.78s.02-.02.04-.03c-.11-.26-.23-.51-.35-.77l-.03.02Z"/>
        <path class="cls-3" d="M660.41,922.19c-.28-.63-.56-1.27-.87-1.89l.84,1.91.03-.02Z"/>
        <path class="cls-3" d="M664.19,957.58c.04-.2.08-.41.12-.61l-.12.61Z"/>
        <path class="cls-3" d="M660.38,922.21l-13.37,8.86,16.53,24.96,1.06-.7c.52-3.12,14.89-26.31,14.89-29.57,0-8.08-15.75,4.21-18.73-2.79-.02.01-.04.03-.04.03l-.34-.78Z"/>
        <path class="cls-3" d="M582.56,998.63c3.02,1.41,6.17,2.56,9.44,3.44l-9.44-3.44Z"/>
        <path class="cls-3" d="M627.64,1000.3l-5.34,1.73c1.82-.49,3.6-1.07,5.34-1.73Z"/>
        <path class="cls-3" d="M622.05,1002.1v-.53h-29.94v.53c4.78,1.27,11.1,23.43,16.27,23.43s8.88-22.16,13.66-23.43Z"/>
      </g>
    </g>
    <g id="bottom">
      <g id="lines-3" data-name="lines">
        <path class="cls-3" d="M922.72,841.75l-2.97-3.36c.92,3.59-3.71,5.74-3.71,5.74,1.97-.75,3.96-1.46,5.97-2.13l.71-.25Z"/>
        <path class="cls-3" d="M951.85,864.43l-1.45,1.23c1.41-.22,2.86-.42,4.31-.62l-.05-.02-2.8-.59Z"/>
        <path class="cls-3" d="M957.48,866.29l-2.78-1.24c-1.45.19-2.9.4-4.31.62-1.2.2,4.12-.41,7.09.62Z"/>
        <path class="cls-3" d="M864.47,1034.29s.05.03.07.05c-.01-.02-.04-.03-.07-.05Z"/>
        <path class="cls-3" d="M864.54,1034.33s.02.05.02.05c.02,0,0-.03-.02-.05Z"/>
        <path class="cls-3" d="M864.53,1034.38h.03s-.15-.12-.15-.12c.03,0,.04.02.06.03-.72-.48-6.01-2.97-8.67-12.7-.37-1.37-.65-2.33-.85-2.99.8,4.76,1.77,9.58,2.93,14.48,2.26.31,4.47.74,6.64,1.3Z"/>
        <path class="cls-3" d="M864.56,1034.38s0-.03-.02-.05c-.01-.01-.05-.03-.07-.05-.02-.01-.03-.03-.06-.03l.15.13Z"/>
        <path class="cls-3" d="M857.89,1033.08s0,0,0,0c-1.16-4.89-2.13-9.72-2.93-14.48-1.75-5.81,2.75,13.7,2.93,14.48Z"/>
        <path class="cls-3" d="M828.36,1036.56l-.7-1.51c.12.56.25,1.13.38,1.7l.32-.19Z"/>
        <path class="cls-3" d="M827.13,1037.13c.28-.12.58-.23.86-.35,0,0,.02-.03.02-.03h.02c-.13-.58-.26-1.15-.38-1.71l-.03-.07c.2.5,0,1.16-.5,2.15,0,0,0,0,0,0Z"/>
        <path class="cls-3" d="M828.04,1036.75s0,.01,0,.02c6.75-2.74,14.11-4.26,21.83-4.26,2.72,0,5.39.2,8.01.56-.18-.78-4.68-20.29-2.93-14.48-7.13-42.28-.33-79.08,19.97-107.1,17.63-24.33,44.68-41.04,75.46-45.84l1.45-1.23,2.8.59.05.02c.75-.1,1.5-.19,2.26-.28-.46-.11-.89-.21-1.37-.33-13.28-3.32-31.48-21.3-32.84-22.66-.24.08-.49.15-.74.24l-5.97,2.13c-26.2,10.05-48.97,27.19-65.35,49.8-18.97,26.19-38.07,71.76-23.03,141.11l.7,1.51-.32.19Z"/>
        <path class="cls-3" d="M990.51,874.41c-.18-.1-.33-.18-.5-.28l-8.12-.89s10.07,3.32,14.34,9.73c0,0,0,0,0,0l-5.64-8.52s-.05-.03-.08-.04Z"/>
        <path class="cls-3" d="M990.59,874.45s0,0,0,0l5.64,8.52c3.92,5.9-4.31-6.52-5.64-8.52Z"/>
        <path class="cls-3" d="M1147.64,1110.11c-.29-.37-3.78-4.79-2.59-2.4l1.82,2.75c.26-.11.51-.24.77-.35Z"/>
        <path class="cls-3" d="M1145.06,1107.71s0,0,0,0c1.07,2.14-.19,3.51-.17,3.66l.1-.05c.62-.3,1.26-.59,1.89-.87l-1.82-2.75Z"/>
        <path class="cls-3" d="M1180,1106.26l-2.54-3.84s0,0,0,0c-2.34-3.49,2.54,3.84,2.54,3.84Z"/>
        <path class="cls-3" d="M1181.65,1106.57c.2.04.41.07.61.12l.12.02s-2.59-.8-4.93-4.29l2.54,3.84,1.65.31Z"/>
        <path class="cls-3" d="M990.59,874.45c1.33,2,9.56,14.42,5.64,8.52l148.82,224.74c-1.19-2.39,2.29,2.03,2.59,2.4,7-2.99,14.71-4.64,22.79-4.64,3.26,0,6.46.28,9.58.8v-.02s-4.89-7.33-2.55-3.84c0,0,0,0,0,0l-162.71-245.71c31.88,48.85,6.43,34.74-24.15,17.75Z"/>
        <path class="cls-3" d="M1226.75,1178.87c-.88,3.27-2.03,6.43-3.44,9.44l-.05.15s3.81-9.71,14.63-9.71h-11.09l-.04.12Z"/>
        <path class="cls-3" d="M1226.8,1148.82h3.73c-1.96,0-5.6-5.79-5.6-5.79l.07.2c.66,1.74,1.23,3.52,1.73,5.34l.08.24Z"/>
        <path class="cls-3" d="M1332.52,1146.8s-.63,2.01-2.93,2.01h2.37l.56-2.01Z"/>
        <path class="cls-3" d="M1332.12,1178.75h-9.83c7.48,0,11.37,4.83,11.37,4.83v-.03c-.54-1.44-1-2.9-1.41-4.39l-.13-.41Z"/>
        <path class="cls-3" d="M960.6,864.38c-1.22.11-2.43.24-3.64.39,27.76,6.77,11.75-2.47,33.05,9.37l.4.04-.63-.95,24.96-16.53c-31.9-48.89-92.08-15.02-92.08-15.02,0,0,.04.04.09.09,11.28-3.73,23.12-6.19,35.32-7.22l2.53,29.83Z"/>
        <path class="cls-3" d="M956.96,864.77c1.21-.14,2.42-.28,3.64-.39l-2.53-29.83c-12.2,1.03-24.04,3.5-35.32,7.22,1.36,1.35,19.57,19.34,32.84,22.66.48.12.91.22,1.37.33Z"/>
        <path class="cls-3" d="M990.59,874.45l-.17-.25-.02-.03-.4-.04c.17.1.32.18.5.28.03.01.05.03.08.04Z"/>
        <path class="cls-3" d="M990.59,874.45c-.08-.13-.14-.22-.17-.25l.17.25s0,0,0,0Z"/>
        <path class="cls-3" d="M990.41,874.18h0s.01.02.02.03c.02.04.08.12.17.25,30.57,16.99,56.02,31.1,24.15-17.75l-24.96,16.53.63.95Z"/>
        <path class="cls-3" d="M990.41,874.18h0l.02.03s-.02-.03-.02-.03Z"/>
        <path class="cls-3" d="M1226.79,1148.82c1.27,4.78,1.96,9.79,1.96,14.97s-.69,10.19-1.96,14.97h105.35c-1.32-4.87-2.04-9.99-2.04-15.28s.65-9.97,1.87-14.66h-105.17Z"/>
        <path class="cls-6" d="M1226.79,1178.75s-.02.08-.03.12l.04-.12h0Z"/>
        <path class="cls-6" d="M1180,1106.26v.02c.56.09,1.11.19,1.65.29l-1.65-.31Z"/>
        <path class="cls-6" d="M1170.43,1132.91c-17.02,0-30.87,13.85-30.87,30.87s13.85,30.87,30.87,30.87,30.87-13.85,30.87-30.87-13.85-30.87-30.87-30.87Z"/>
        <path class="cls-6" d="M1332.13,1178.75h-.01l.13.41c-.04-.14-.08-.27-.12-.41Z"/>
        <path class="cls-6" d="M828.04,1036.75h-.02s-.02.03-.02.04c.02,0,.03-.01.05-.02,0,0,0-.01,0-.02Z"/>
        <path class="cls-6" d="M1388.4,1194.34c17.02,0,30.87-13.85,30.87-30.87s-13.85-30.87-30.87-30.87-30.87,13.85-30.87,30.87,13.85,30.87,30.87,30.87Z"/>
        <path class="cls-6" d="M819.01,1090.82c0,17.02,13.85,30.87,30.87,30.87s30.87-13.85,30.87-30.87-13.85-30.87-30.87-30.87-30.87,13.85-30.87,30.87Z"/>
        <path class="cls-6" d="M1226.72,1148.58c.02.08.05.16.07.24h0l-.08-.24Z"/>
        <path class="cls-3" d="M916.04,844.14l5.97-2.13c-2.01.67-4,1.38-5.97,2.13Z"/>
      </g>
      <g id="dots-3" data-name="dots">
        <path class="cls-3" d="M1332.27,1178.75h-.14c.04.14.08.27.12.41l1.4,4.39c8.2,22.29,29.65,38.23,54.75,38.23,32.15,0,58.31-26.16,58.31-58.31s-26.16-58.31-58.31-58.31c-27.09,0-49.93,18.57-56.44,43.66h.32v29.94ZM1388.4,1132.6c17.02,0,30.87,13.85,30.87,30.87s-13.85,30.87-30.87,30.87-30.87-13.85-30.87-30.87,13.85-30.87,30.87-30.87Z"/>
        <path class="cls-3" d="M1333.65,1183.55l-1.4-4.39c.42,1.49.87,2.95,1.4,4.39Z"/>
        <path class="cls-3" d="M1332.13,1178.75h.14v-29.94h-.32c-1.22,4.68-31.32,11.35-31.32,16.41s30.17,8.65,31.49,13.53Z"/>
        <path class="cls-3" d="M856.17,1033.52l-27.41,6.48c-.26-1.09-.48-2.16-.72-3.24-.02,0-.03.01-.05.02-.13.14-1.48,1.56-.86.35-20.88,8.88-35.57,29.6-35.57,53.69,0,32.15,26.16,58.31,58.31,58.31s58.31-26.16,58.31-58.31c0-27.09-18.57-49.93-43.66-56.44l-6.68-1.2c-.19.28-.98,1.27-1.68.34ZM880.75,1090.82c0,17.02-13.85,30.87-30.87,30.87s-30.87-13.85-30.87-30.87,13.85-30.87,30.87-30.87,30.87,13.85,30.87,30.87Z"/>
        <path class="cls-3" d="M857.85,1033.18s.05-.07.05-.07l-.19.04.14.03Z"/>
        <path class="cls-3" d="M857.9,1033.11s-.02.03-.05.07l6.68,1.2c-2.17-.56-4.38-.99-6.64-1.3,0,.01,0,.02,0,.04Z"/>
        <path class="cls-3" d="M856.17,1033.52c.7.93,1.48-.06,1.68-.34l-.14-.03-1.54.36Z"/>
        <path class="cls-3" d="M857.89,1033.08s0,0,0,0c0,.02,0,.04,0,.04,0-.01,0-.02,0-.04Z"/>
        <path class="cls-3" d="M855.81,1032.82c.12.31.24.54.37.7l1.54-.36-1.9-.34Z"/>
        <path class="cls-3" d="M828,1036.79c-.29.12-.58.22-.86.35-.61,1.21.73-.21.86-.35Z"/>
        <path class="cls-3" d="M856.17,1033.52c-.13-.17-.25-.39-.37-.7l1.9.34.19-.04s0-.02,0-.04c-2.62-.36-11.04-5.05-13.76-5.05-7.72,0-9.34,6.01-16.09,8.75.24,1.08.46,2.14.72,3.24l27.41-6.48Z"/>
        <path class="cls-3" d="M1180.01,1106.27l.7,1.06-24.96,16.53-8.86-13.37-1.91.84c-19.44,9.47-32.87,29.42-32.87,52.46,0,32.15,26.16,58.31,58.31,58.31,23.39,0,43.6-13.85,52.88-33.78l3.44-9.44s.02-.08.03-.12h-.53v-29.94h.53c-.02-.08-.05-.16-.07-.24l-1.73-5.34c-6.97-18.46-23.05-32.48-42.73-36.55l-.61-.12c-.55-.11-1.09-.2-1.64-.29ZM1170.43,1194.65c-17.02,0-30.87-13.85-30.87-30.87s13.85-30.87,30.87-30.87,30.87,13.85,30.87,30.87-13.85,30.87-30.87,30.87Z"/>
        <path class="cls-3" d="M1146.9,1110.49l.78-.34s-.02-.02-.03-.04c-.26.11-.51.23-.77.35l.02.03Z"/>
        <path class="cls-3" d="M1146.88,1110.46c-.63.28-1.27.56-1.89.87l1.91-.84-.02-.03Z"/>
        <path class="cls-3" d="M1182.27,1106.68c-.2-.04-.41-.08-.61-.12l.61.12Z"/>
        <path class="cls-3" d="M1146.9,1110.49l8.86,13.37,24.96-16.53-.7-1.06c-3.12-.52-28.27-19.63-31.54-19.63-8.08,0,6.18,20.48-.83,23.47.01.02.03.04.03.04l-.78.34Z"/>
        <path class="cls-3" d="M1223.31,1188.31c1.41-3.02,2.56-6.17,3.44-9.44l-3.44,9.44Z"/>
        <path class="cls-3" d="M1224.99,1143.23l1.73,5.34c-.49-1.82-1.07-3.6-1.73-5.34Z"/>
        <path class="cls-3" d="M1226.79,1148.82h-.53v29.94h.53c1.27-4.78,15.23-10.85,15.23-16.02s-13.96-9.14-15.23-13.91Z"/>
      </g>
    </g>
    <g id="top">
      <g id="lines-4" data-name="lines">
        <path class="cls-3" d="M1066.32,847.49l-3.36,2.97c3.59-.92,5.74,3.71,5.74,3.71-.75-1.97-1.46-3.96-2.13-5.97l-.25-.71Z"/>
        <path class="cls-3" d="M1089,818.36l1.23,1.45c-.22-1.41-.42-2.86-.62-4.31l-.02.05-.59,2.8Z"/>
        <path class="cls-3" d="M1090.85,812.73l-1.24,2.78c.19,1.45.4,2.9.62,4.31.2,1.2-.41-4.12.62-7.09Z"/>
        <path class="cls-3" d="M1258.85,905.74s.03-.05.05-.07c-.02.01-.03.04-.05.07Z"/>
        <path class="cls-3" d="M1258.9,905.67s.05-.02.05-.02c0-.02-.03,0-.05.02Z"/>
        <path class="cls-3" d="M1258.94,905.68v-.03s-.12.15-.12.15c0-.03.02-.04.03-.06-.48.72-2.97,6.01-12.7,8.67-1.37.37-2.33.65-2.99.85,4.76-.8,9.58-1.77,14.48-2.93.31-2.26.74-4.47,1.3-6.64Z"/>
        <path class="cls-3" d="M1258.95,905.65s-.03,0-.05.02c-.01.01-.03.05-.05.07-.01.02-.03.03-.03.06l.13-.15Z"/>
        <path class="cls-3" d="M1257.64,912.32s0,0,0,0c-4.89,1.16-9.72,2.13-14.48,2.93-5.81,1.75,13.7-2.75,14.48-2.93Z"/>
        <path class="cls-3" d="M1261.12,941.85l-1.51.7c.56-.12,1.13-.25,1.7-.38l-.19-.32Z"/>
        <path class="cls-3" d="M1261.7,943.08c-.12-.28-.23-.58-.35-.86,0,0-.03-.02-.03-.02v-.02c-.58.13-1.15.26-1.71.38l-.07.03c.5-.2,1.16,0,2.15.5,0,0,0,0,0,0Z"/>
        <path class="cls-3" d="M1261.31,942.17s.01,0,.02,0c-2.74-6.75-4.26-14.11-4.26-21.83,0-2.72.2-5.39.56-8.01-.78.18-20.29,4.68-14.48,2.93-42.28,7.13-79.08.33-107.1-19.97-24.33-17.63-41.04-44.68-45.84-75.46l-1.23-1.45.59-2.8.02-.05c-.1-.75-.19-1.5-.28-2.26-.11.46-.21.89-.33,1.37-3.32,13.28-21.3,31.48-22.66,32.84.08.24.15.49.24.74l2.13,5.97c10.05,26.2,27.19,48.97,49.8,65.35,26.19,18.97,71.76,38.07,141.11,23.03l1.51-.7.19.32Z"/>
        <path class="cls-3" d="M1098.97,779.7c-.1.18-.18.33-.28.5l-.89,8.12s3.32-10.07,9.73-14.34c0,0,0,0,0,0l-8.52,5.64s-.03.05-.04.08Z"/>
        <path class="cls-3" d="M1099.02,779.62s0,0,0,0l8.52-5.64c5.9-3.92-6.52,4.31-8.52,5.64Z"/>
        <path class="cls-3" d="M1334.68,622.57c-.37.29-4.79,3.78-2.4,2.59l2.75-1.82c-.11-.26-.24-.51-.35-.77Z"/>
        <path class="cls-3" d="M1332.27,625.16s0,0,0,0c2.14-1.07,3.51.19,3.66.17l-.05-.1c-.3-.62-.59-1.26-.87-1.89l-2.75,1.82Z"/>
        <path class="cls-3" d="M1330.82,590.21l-3.84,2.54s0,0,0,0c-3.49,2.34,3.84-2.54,3.84-2.54Z"/>
        <path class="cls-3" d="M1331.13,588.56c.04-.2.07-.41.12-.61l.02-.12s-.8,2.59-4.29,4.93l3.84-2.54.31-1.65Z"/>
        <path class="cls-3" d="M1099.02,779.62c2-1.33,14.42-9.56,8.52-5.64l224.74-148.82c-2.39,1.19,2.03-2.29,2.4-2.59-2.99-7-4.64-14.71-4.64-22.79,0-3.26.28-6.46.8-9.58h-.02s-7.33,4.89-3.84,2.55c0,0,0,0,0,0l-245.71,162.71c48.85-31.88,34.74-6.43,17.75,24.15Z"/>
        <path class="cls-3" d="M1403.43,543.46c3.27.88,6.43,2.03,9.44,3.44l.15.05s-9.71-3.81-9.71-14.63v11.09l.12.04Z"/>
        <path class="cls-3" d="M1373.38,543.42v-3.73c0,1.96-5.79,5.6-5.79,5.6l.2-.07c1.74-.66,3.52-1.23,5.34-1.73l.24-.08Z"/>
        <path class="cls-3" d="M1371.36,437.69s2.01.63,2.01,2.93v-2.37l-2.01-.56Z"/>
        <path class="cls-3" d="M1403.31,438.09v9.83c0-7.48,4.83-11.37,4.83-11.37h-.03c-1.44.54-2.9,1-4.39,1.41l-.41.13Z"/>
        <path class="cls-3" d="M1088.94,809.62c.11,1.22.24,2.43.39,3.64,6.77-27.76-2.47-11.75,9.37-33.05l.04-.4-.95.63-16.53-24.96c-48.89,31.9-15.02,92.08-15.02,92.08,0,0,.04-.04.09-.09-3.73-11.28-6.19-23.12-7.22-35.32l29.83-2.53Z"/>
        <path class="cls-3" d="M1089.33,813.25c-.14-1.21-.28-2.42-.39-3.64l-29.83,2.53c1.03,12.2,3.5,24.04,7.22,35.32,1.35-1.36,19.34-19.57,22.66-32.84.12-.48.22-.91.33-1.37Z"/>
        <path class="cls-3" d="M1099.02,779.62l-.25.17-.03.02-.04.4c.1-.17.18-.32.28-.5.01-.03.03-.05.04-.08Z"/>
        <path class="cls-3" d="M1099.02,779.62c-.13.08-.22.14-.25.17l.25-.17s0,0,0,0Z"/>
        <path class="cls-3" d="M1098.74,779.8h0s.02-.01.03-.02c.04-.02.12-.08.25-.17,16.99-30.57,31.1-56.02-17.75-24.15l16.53,24.96.95-.63Z"/>
        <path class="cls-3" d="M1098.74,779.8h0l.03-.02s-.03.02-.03.02Z"/>
        <path class="cls-3" d="M1373.38,543.42c4.78-1.27,9.79-1.96,14.97-1.96s10.19.69,14.97,1.96h0v-105.33h0c-4.87,1.31-9.99,2.03-15.28,2.03s-9.97-.65-14.66-1.87h0v105.16h0Z"/>
        <path class="cls-6" d="M1403.31,543.42s.08.02.12.03l-.12-.04h0Z"/>
        <path class="cls-6" d="M1330.82,590.21h.02c.09-.56.19-1.11.29-1.65l-.31,1.65Z"/>
        <path class="cls-6" d="M1357.48,599.78c0,17.02,13.85,30.87,30.87,30.87s30.87-13.85,30.87-30.87-13.85-30.87-30.87-30.87-30.87,13.85-30.87,30.87Z"/>
        <path class="cls-6" d="M1403.31,438.08h0s.41-.12.41-.12c-.14.04-.27.08-.41.12Z"/>
        <path class="cls-6" d="M1261.31,942.17v.02s.03.02.04.02c0-.02-.01-.03-.02-.05,0,0-.01,0-.02,0Z"/>
        <path class="cls-6" d="M1418.9,381.81c0-17.02-13.85-30.87-30.87-30.87s-30.87,13.85-30.87,30.87,13.85,30.87,30.87,30.87,30.87-13.85,30.87-30.87Z"/>
        <path class="cls-6" d="M1315.39,951.21c17.02,0,30.87-13.85,30.87-30.87s-13.85-30.87-30.87-30.87-30.87,13.85-30.87,30.87,13.85,30.87,30.87,30.87Z"/>
        <path class="cls-6" d="M1373.14,543.49c.08-.02.16-.05.24-.07h0s-.24.07-.24.07Z"/>
        <path class="cls-3" d="M1068.7,854.17l-2.13-5.97c.67,2.01,1.38,4,2.13,5.97Z"/>
      </g>
      <g id="dots-4" data-name="dots">
        <path class="cls-3" d="M1403.31,437.94v.14c.14-.04.27-.08.41-.12l4.39-1.4c22.29-8.2,38.23-29.65,38.23-54.75,0-32.15-26.16-58.31-58.31-58.31s-58.31,26.16-58.31,58.31c0,27.09,18.57,49.93,43.66,56.44v-.32h29.94ZM1357.16,381.81c0-17.02,13.85-30.87,30.87-30.87s30.87,13.85,30.87,30.87-13.85,30.87-30.87,30.87-30.87-13.85-30.87-30.87Z"/>
        <path class="cls-3" d="M1408.11,436.56l-4.39,1.4c1.49-.42,2.95-.87,4.39-1.4Z"/>
        <path class="cls-3" d="M1403.31,438.08v-.14h-29.94v.32c4.68,1.22,9.51,28.48,14.57,28.48s10.49-27.34,15.36-28.66Z"/>
        <path class="cls-3" d="M1258.09,914.04l6.48,27.41c-1.09.26-2.16.48-3.24.72,0,.02.01.03.02.05.14.13,1.56,1.48.35.86,8.88,20.88,29.6,35.57,53.69,35.57,32.15,0,58.31-26.16,58.31-58.31s-26.16-58.31-58.31-58.31c-27.09,0-49.93,18.57-56.44,43.66l-1.2,6.68c.28.19,1.27.98.34,1.68ZM1315.39,889.46c17.02,0,30.87,13.85,30.87,30.87s-13.85,30.87-30.87,30.87-30.87-13.85-30.87-30.87,13.85-30.87,30.87-30.87Z"/>
        <path class="cls-3" d="M1257.75,912.36s-.07-.05-.07-.05l.04.19.03-.14Z"/>
        <path class="cls-3" d="M1257.68,912.31s.03.02.07.05l1.2-6.68c-.56,2.17-.99,4.38-1.3,6.64.01,0,.02,0,.04,0Z"/>
        <path class="cls-3" d="M1258.09,914.04c.93-.7-.06-1.48-.34-1.68l-.03.14.36,1.54Z"/>
        <path class="cls-3" d="M1257.64,912.32s0,0,0,0c.02,0,.04,0,.04,0-.01,0-.02,0-.04,0Z"/>
        <path class="cls-3" d="M1257.38,914.41c.31-.12.54-.24.7-.37l-.36-1.54-.34,1.9Z"/>
        <path class="cls-3" d="M1261.35,942.22c.12.29.22.58.35.86,1.21.61-.21-.73-.35-.86Z"/>
        <path class="cls-3" d="M1258.09,914.04c-.17.13-.39.25-.7.37l.34-1.9-.04-.19s-.02,0-.04,0c-.36,2.62-8.14,9.46-8.14,12.17,0,7.72,9.09,10.92,11.83,17.67,1.08-.24,2.14-.46,3.24-.72l-6.48-27.41Z"/>
        <path class="cls-3" d="M1330.83,590.2l1.06-.7,16.53,24.96-13.37,8.86.84,1.91c9.47,19.44,29.42,32.87,52.46,32.87,32.15,0,58.31-26.16,58.31-58.31,0-23.39-13.85-43.6-33.78-52.88l-9.44-3.44s-.08-.02-.12-.03v.53h-29.94v-.53c-.08.02-.16.05-.24.07l-5.34,1.73c-18.46,6.97-32.48,23.05-36.55,42.73l-.12.61c-.11.55-.2,1.09-.29,1.64ZM1419.22,599.78c0,17.02-13.85,30.87-30.87,30.87s-30.87-13.85-30.87-30.87,13.85-30.87,30.87-30.87,30.87,13.85,30.87,30.87Z"/>
        <path class="cls-3" d="M1335.05,623.31l-.34-.78s-.02.02-.04.03c.11.26.23.51.35.77l.03-.02Z"/>
        <path class="cls-3" d="M1335.02,623.33c.28.63.56,1.27.87,1.89l-.84-1.91-.03.02Z"/>
        <path class="cls-3" d="M1331.24,587.95c-.04.2-.08.41-.12.61l.12-.61Z"/>
        <path class="cls-3" d="M1335.05,623.31l13.37-8.86-16.53-24.96-1.06.7c-.52,3.12-11.48,21.7-11.48,24.96,0,8.08,12.34.4,15.33,7.4.02-.01.04-.03.04-.03l.34.78Z"/>
        <path class="cls-3" d="M1412.87,546.9c-3.02-1.41-6.17-2.56-9.44-3.44l9.44,3.44Z"/>
        <path class="cls-3" d="M1367.8,545.22l5.34-1.73c-1.82.49-3.6,1.07-5.34,1.73Z"/>
        <path class="cls-3" d="M1373.38,543.42v.53h29.94v-.53c-4.78-1.27-11.44-28.04-16.61-28.04s-8.55,26.77-13.33,28.04Z"/>
      </g>
    </g>
    <circle id="center_dot" data-name="center dot" class="cls-3" cx="997.23" cy="772.89" r="101.65"/>
    <g id="color_dots" data-name="color dots">
      <circle class="cls-5" cx="606.52" cy="946.32" r="31.81"/>
      <circle class="cls-5" cx="1170.3" cy="1163.35" r="31.81"/>
      <circle class="cls-5" cx="1388.58" cy="381.3" r="31.81"/>
      <circle class="cls-4" cx="679.49" cy="625.15" r="34.92"/>
      <circle class="cls-4" cx="1315.61" cy="920.75" r="34.92"/>
      <circle class="cls-4" cx="1387.95" cy="1163.98" r="34.92"/>
      <circle class="cls-7" cx="1387.95" cy="598.95" r="34.92"/>
      <circle class="cls-7" cx="825.42" cy="381.92" r="34.92"/>
      <circle class="cls-7" cx="604.65" cy="1168.97" r="34.92"/>
      <circle class="cls-8" cx="605.9" cy="381.92" r="34.92"/>
      <circle class="cls-8" cx="1147.22" cy="454.27" r="34.92"/>
      <circle class="cls-8" cx="850.37" cy="1090.39" r="34.92"/>
    </g>
  </g>
  <text id="connecteur_de_talents" data-name="connecteur de talents" class="cls-10" transform="translate(698.24 1683.74)"><tspan class="cls-1" x="0" y="0">CONN</tspan><tspan class="cls-13" x="367.65" y="0">E</tspan><tspan class="cls-1" x="449.87" y="0">C</tspan><tspan class="cls-14" x="539.8" y="0">T</tspan></text>
  <text id="connecteur_de_talents-2" data-name="connecteur de talents" class="cls-9" transform="translate(78.18 1546.01)"><tspan x="0" y="0">FREE </tspan><tspan class="cls-2" x="784.41" y="0">S</tspan><tspan class="cls-12" x="955.75" y="0">-</tspan><tspan class="cls-11" x="1057.14" y="0">C</tspan><tspan x="1245.12" y="0">OOL</tspan></text>
</svg>