<?xml version="1.0" encoding="UTF-8"?>
<svg id="Calque_3" data-name="Calque 3" xmlns="http://www.w3.org/2000/svg" width="697.44" height="989.3" viewBox="0 0 697.44 989.3">
  <defs>
    <style>
      .cls-1 {
        fill: #000;
      }

      .cls-1, .cls-2 {
        stroke-width: 0px;
      }

      .cls-2, .cls-3 {
        fill: #c8c8c8;
      }

      .cls-3 {
        stroke: #000;
        stroke-width: 15px;
      }
    </style>
  </defs>
  <g>
    <path class="cls-2" d="M477.34,816.66c-45.17,0-83.1-7.08-112.72-21.03-21.03-9.91-39.54-23.49-55.01-40.38-3.73-4.07-9.16-6.4-14.9-6.4s-10.5,2.04-14.22,5.75c-22.07,22.01-42.8,36.9-63.36,45.53-26.14,10.97-53.56,16.53-81.49,16.53-17.77,0-36.79-3.25-56.52-9.67-19.88-6.47-36.95-16.5-50.71-29.8-13.88-13.4-20.91-30.71-20.91-51.46,0-14.46,4.64-25.71,13.78-33.42,9.04-7.63,20.58-12.94,34.31-15.79,13.25-2.75,27.14-4.15,41.27-4.15,2.64,0,4.48,1.66,4.48,3.15,0,4.06-.14,9.1-.43,15.42-.28,6.03-.43,12.45-.43,19.07,0,9.81.86,19.89,2.56,29.95,1.66,9.82,5.49,17.7,11.72,24.08,5.74,5.89,15.11,8.75,28.64,8.75,15.41,0,28.65-5.06,40.48-15.46,12.25-10.78,23.02-25.03,32-42.38l1.9-3.66c8.1-15.61,15.1-29.09,20.98-47.98l.07-.21.05-.22c.93-3.74,22.77-92.3,29.19-147.12,1.95-16.65,4.27-38.79,6.72-62.24,5.09-48.65,12.06-115.28,15.27-122.95.89-2.1,4.6-6.12,19.38-9.34,11.98-2.61,27.6-3.94,42.72-5.21,4.83-.41,9.75-.83,14.6-1.29-1.84,40.28-23.48,239.63-38.74,373.95l-.24,2.13.92,1.94c8.47,17.79,23.83,33.16,45.64,45.67,23.33,13.39,48.72,20.18,75.45,20.18s46.83-4.77,62.43-14.19c16.01-9.66,27.39-21.78,34.79-37.07,7.43-15.34,11.19-31.59,11.19-48.3,0-19.31-4.15-39.28-12.33-59.38-8.18-20.06-19.75-38.75-34.4-55.54-14.53-16.64-31.91-29.98-51.66-39.63-1.24-.6-2-1.6-2-2.6v-44.46c0-1.43,1.69-3.03,4.2-3.15,37.58-1.73,68.86-10.54,92.96-26.19,24.22-15.72,35.99-35.46,35.99-60.35,0-22.33-6.01-40.63-17.88-54.37-11.85-13.73-27.65-24.48-46.94-31.97-19.58-7.58-41.43-12.82-64.97-15.56-23.8-2.77-47.49-4.18-70.41-4.18-24.71,0-51.95,3.43-80.97,10.2-25.43,5.93-49.58,17.76-72.93,29.2-3.58,1.75-7.13,3.49-10.64,5.19l-1.35.65c-24.72,11.94-46.06,22.25-62.63,40.1-16.61,17.9-24.69,37.47-24.69,59.84,0,9.78,3.3,19.16,9.8,27.88l13.35,19.54c18.38,30.97,29.09,49.99,35.79,63.58,7.17,14.55,8.4,20.45,8.51,22.65-.16,0-.33.01-.53.01-5.91,0-17.95-3.89-30.82-8.23-21.08-7.1-24.88-9.2-37.46-16.14-1.63-.9-3.39-1.87-5.34-2.94-20.5-11.19-37.79-25.32-51.41-41.99-13.69-16.76-20.63-36.22-20.63-57.86,0-31.04,10.34-59.59,30.75-84.87,20.34-25.2,48.24-47.21,82.95-65.42,34.57-18.14,74.23-32.23,117.89-41.88,43.58-9.63,89.53-14.51,136.57-14.51,43.7,0,84.9,5.29,122.43,15.73,37.84,10.53,68.82,27.28,92.09,49.8,23.31,22.56,35.13,52.12,35.13,87.87,0,10.14-2.36,21.98-7.02,35.19-4.69,13.3-12.79,26.38-24.07,38.89-11.42,12.66-27.39,23.34-47.46,31.74-4.3,1.8-8.93,3.45-13.76,4.89-7.27,2.17-12.37,7.92-13.33,15.01-.92,6.85,2.31,13.48,8.44,17.31,31.05,19.4,55.25,40.7,71.92,63.32,25.63,34.78,38.63,68.26,38.63,99.51,0,33.62-9.94,61.95-29.55,84.21-19.64,22.29-45.96,39.15-78.21,50.11-32.04,10.88-67.32,16.4-104.84,16.4Z"/>
    <path class="cls-1" d="M426.93,214.19c43.02,0,83.54,5.2,120.42,15.46,36.62,10.19,66.53,26.32,88.89,47.96,21.8,21.1,32.85,48.85,32.85,82.48,0,9.29-2.22,20.29-6.59,32.69-4.36,12.36-11.95,24.6-22.56,36.37-10.67,11.83-25.74,21.87-44.79,29.85-4.06,1.7-8.44,3.25-13.02,4.62-10.13,3.03-17.26,11.15-18.61,21.19-1.32,9.81,3.24,19.26,11.9,24.67,30.25,18.89,53.75,39.55,69.86,61.41,24.66,33.46,37.17,65.45,37.17,95.06,0,31.74-9.31,58.4-27.67,79.25-18.77,21.3-44,37.44-74.99,47.96-31.27,10.62-65.73,16-102.43,16-44.06,0-80.91-6.83-109.52-20.31-20.15-9.49-37.87-22.5-52.67-38.66-5.14-5.62-12.59-8.84-20.43-8.84s-14.38,2.82-19.51,7.94c-21.37,21.31-41.32,35.68-60.97,43.93-25.22,10.58-51.66,15.95-78.59,15.95-16.98,0-35.22-3.13-54.2-9.3-18.79-6.11-34.88-15.55-47.83-28.06-12.53-12.1-18.62-27.17-18.62-46.06,0-12.32,3.64-21.38,11.12-27.69,8.07-6.81,18.5-11.59,31-14.18,11.8-2.45,24.12-3.78,36.67-3.97-.06,3.07-.19,6.6-.38,10.69-.29,6.16-.44,12.7-.44,19.44,0,10.23.9,20.72,2.66,31.19,1.89,11.22,6.52,20.66,13.74,28.06,7.23,7.41,18.36,11.02,34.02,11.02,17.07,0,32.36-5.83,45.44-17.33,12.95-11.39,24.29-26.38,33.7-44.56l1.89-3.65c8.27-15.93,15.41-29.68,21.48-49.21l.13-.42.11-.43c.93-3.76,22.88-92.77,29.36-148.05,1.96-16.7,4.28-38.87,6.73-62.34,4.57-43.7,11.44-109.32,14.66-120.53.84-.75,4.55-3.4,17-5.79,11.09-2.13,25.22-3.32,38.87-4.48,1.97-.17,3.96-.34,5.96-.51-3.82,54.54-24.4,243.62-38.19,364.85l-.49,4.27,1.85,3.88c9.14,19.2,25.52,35.66,48.67,48.94,24.49,14.05,51.13,21.18,79.18,21.18s49.51-5.14,66.31-15.27c17.29-10.43,29.61-23.59,37.67-40.23,7.92-16.36,11.94-33.72,11.94-51.57,0-20.28-4.34-41.21-12.89-62.21-8.49-20.83-20.5-40.22-35.69-57.64-14.65-16.78-32.07-30.34-51.81-40.34v-37.22c37.63-2.11,69.15-11.27,93.74-27.24,26.15-16.97,39.41-39.4,39.41-66.64,0-24.18-6.63-44.12-19.7-59.28-12.66-14.66-29.45-26.12-49.91-34.06-20.16-7.81-42.64-13.2-66.81-16.02-24.09-2.8-48.07-4.23-71.27-4.23-25.29,0-53.1,3.5-82.67,10.39-26.27,6.12-50.8,18.15-74.53,29.77-3.66,1.79-7.11,3.49-10.6,5.17l-1.35.65c-25.4,12.27-47.34,22.86-64.87,41.75-17.96,19.35-26.69,40.6-26.69,64.94,0,11.38,3.77,22.22,11.19,32.23l13.13,19.22c16.48,27.78,26.81,45.99,33.47,59.04,2.96,5.8,5.01,10.25,6.44,13.63-6.05-1.69-13.15-4.08-18.25-5.8-20.44-6.89-23.78-8.73-36.23-15.59-1.63-.9-3.41-1.88-5.38-2.96-19.64-10.73-36.19-24.24-49.19-40.15-12.57-15.38-18.94-33.25-18.94-53.11,0-29.28,9.78-56.25,29.08-80.16,19.69-24.4,46.8-45.76,80.6-63.49,33.98-17.83,73.02-31.69,116.02-41.19,43.05-9.51,88.46-14.33,134.95-14.33M426.93,199.19c-47.58,0-94.07,4.94-138.19,14.69-44.31,9.79-84.6,24.11-119.76,42.56-35.62,18.69-64.31,41.35-85.3,67.35-21.51,26.64-32.41,56.78-32.41,89.58,0,23.41,7.51,44.47,22.32,62.6,14.23,17.42,32.27,32.17,53.62,43.83,17.28,9.45,19.54,11.36,44.01,19.6,15.06,5.07,26.31,8.62,33.22,8.62,17.26,0,7.5-22.1-37.43-97.78-4.53-6.63-9.05-13.24-13.57-19.87-5.64-7.53-8.4-15.28-8.4-23.52,0-20.38,7.42-38.29,22.68-54.74,15.89-17.12,36.51-26.91,61.74-39.1,25.76-12.44,53.51-27.19,82.01-33.84,28.45-6.64,55.12-10,79.26-10,22.63,0,46.02,1.39,69.54,4.13,22.91,2.67,44.15,7.76,63.13,15.11,18.14,7.04,32.94,17.09,43.98,29.87,10.65,12.35,16.05,28.99,16.05,49.47,0,22.15-10.65,39.83-32.57,54.06-22.96,14.91-52.98,23.32-89.22,24.99-6.37.29-11.36,4.97-11.36,10.64v44.46c0,3.89,2.38,7.46,6.21,9.34h0c18.85,9.21,35.44,21.94,49.3,37.82,14.1,16.16,25.24,34.14,33.11,53.44,7.82,19.19,11.78,38.21,11.78,56.55,0,15.57-3.51,30.73-10.44,45.04-6.75,13.94-17.2,25.04-31.92,33.92-14.42,8.7-34.13,13.11-58.56,13.11s-49.53-6.46-71.72-19.19c-20.48-11.74-34.79-25.99-42.6-42.38,0,0,43.54-383.03,38.47-383.07,0,0,0,0-.01,0-36.86,4.1-83.47,4.01-90.77,21.19-5.16,12.14-15.99,131.4-22.53,187.24-6.44,54.97-29.02,146.19-29.02,146.19-6.12,19.67-13.5,33.27-22.37,50.42-8.55,16.51-18.74,30.03-30.29,40.19-10.41,9.15-22.03,13.6-35.53,13.6-11.25,0-19.07-2.18-23.28-6.49-5.13-5.25-8.3-11.82-9.69-20.08-1.63-9.65-2.45-19.3-2.45-28.7,0-6.51.14-12.8.42-18.73.3-6.44.44-11.6.44-15.77h0c0-5.88-5.36-10.65-11.98-10.65h0c-14.64,0-29.04,1.45-42.79,4.3-14.97,3.11-27.62,8.96-37.63,17.4-10.91,9.21-16.44,22.39-16.44,39.16,0,22.85,7.81,41.98,23.2,56.85,14.59,14.1,32.63,24.71,53.6,31.54,20.48,6.66,40.28,10.04,58.84,10.04,28.94,0,57.33-5.76,84.4-17.12,21.36-8.97,43.03-24.48,65.75-47.14,2.39-2.38,5.66-3.56,8.92-3.56,3.48,0,6.96,1.33,9.37,3.97,16.15,17.64,35.35,31.74,57.34,42.1,30.63,14.43,69.63,21.74,115.91,21.74,38.34,0,74.43-5.65,107.26-16.8,33.51-11.38,60.9-28.96,81.42-52.25,20.85-23.67,31.42-53.67,31.42-89.17,0-32.88-13.49-67.86-40.09-103.96-17.3-23.47-42.07-45.3-73.98-65.23-7.99-4.99-6.19-16,3.06-18.77,5.1-1.53,9.94-3.25,14.51-5.16,21.1-8.83,37.97-20.15,50.14-33.64,11.94-13.25,20.54-27.18,25.57-41.42,4.94-14.01,7.44-26.69,7.44-37.68,0-37.85-12.59-69.23-37.42-93.26-24.18-23.4-56.24-40.77-95.3-51.63-38.19-10.62-80.06-16.01-124.44-16.01h0Z"/>
  </g>
  <path class="cls-3" d="M383.88,506.19l.08-35.89.5-55.55c1.05-102.77,4.35-175.54,9.89-218.29,10.93-81.51,34.69-136.37,71.29-164.57,15.13-11.67,31.32-19.19,48.55-22.58,17.23-3.38,30.09-2.01,38.59,4.11,8.49,6.13,13.78,14.51,15.87,25.15s.84,20.41-3.76,29.28c-4.6,8.88-11.55,14.23-20.85,16.05-9.31,1.83-17.49.9-24.55-2.79-7.06-3.68-11.43-9.8-13.11-18.36-1.68-8.55-1.14-17.08,1.63-25.6-30.33,11.76-45.18,85.34-44.58,220.76.08,21.36.39,46.76.94,76.19.55,29.42.75,51.04.61,64.84l-.5,55.55.38,35.8M464.87,490.29c-3.21,175.67-22.68,301.61-58.4,377.85-29.51,62.69-72.79,99.64-129.84,110.84-25.62,5.03-48.37,3.33-68.24-5.08-19.87-8.42-32.51-26.42-37.92-53.98-3.15-16.05-.83-29.65,6.96-40.78,7.79-11.14,18.18-17.97,31.14-20.52,12.97-2.55,24.79-.43,35.46,6.36,10.68,6.78,17.35,16.98,20.02,30.59,2.67,13.61,1.16,27.67-4.54,42.21,16.11,2.99,28.44,3.66,36.98,1.98,8.54-1.68,17.75-8.47,27.6-20.37,9.86-11.91,17.79-26.78,23.79-44.63,23.36-69.82,35.36-192.67,35.99-368.56"/>
</svg>